<?xml version="1.0" encoding="UTF-8" ?>
<!DOCTYPE svg PUBLIC "-//W3C//DTD SVG 1.1//EN" "http://www.w3.org/Graphics/SVG/1.1/DTD/svg11.dtd">
<svg width="416pt" height="416pt" viewBox="0 0 416 416" version="1.1" xmlns="http://www.w3.org/2000/svg">
<g id="#fdfcfaff">
<path fill="#fdfcfa" opacity="1.00" d=" M 185.32 39.25 C 188.11 36.28 191.97 34.22 196.01 33.68 C 204.29 33.70 212.58 33.55 220.86 33.75 C 224.87 34.79 229.14 36.73 231.38 40.36 C 228.77 53.24 226.72 66.24 224.47 79.19 C 224.47 81.79 223.48 85.24 225.88 87.08 C 227.65 89.34 230.88 88.79 233.36 88.35 C 235.27 86.77 236.84 84.74 237.15 82.20 C 238.50 74.76 239.48 67.25 241.11 59.85 C 241.51 56.13 242.19 52.43 243.74 48.99 C 258.20 56.49 269.98 68.92 276.73 83.74 C 279.65 91.18 282.77 98.74 282.96 106.84 C 284.20 110.18 282.36 114.76 285.72 117.08 C 288.47 117.87 291.92 116.40 294.12 118.74 C 296.78 120.63 298.05 123.77 297.70 126.99 C 298.75 132.94 292.75 138.16 287.02 137.66 C 234.33 137.68 181.65 137.68 128.96 137.65 C 124.38 138.10 120.40 134.99 118.46 131.06 C 118.22 127.02 117.56 122.06 121.25 119.30 C 123.93 115.57 129.56 119.15 132.13 115.34 C 132.44 112.20 132.46 109.03 133.19 105.94 C 133.32 97.84 136.75 90.34 139.61 82.92 C 145.58 70.55 154.85 59.70 166.50 52.35 C 168.61 51.13 170.60 49.39 173.18 49.35 C 174.93 60.61 177.35 71.77 178.95 83.04 C 179.78 86.10 182.41 89.38 185.94 88.70 C 188.38 89.06 189.87 86.92 191.30 85.34 C 192.70 78.98 189.88 72.69 189.36 66.37 C 187.52 58.54 187.04 50.45 184.84 42.70 C 184.57 41.57 184.31 40.11 185.32 39.25 Z" />
<path fill="#fdfcfa" opacity="1.00" d=" M 135.32 152.33 C 183.77 152.33 232.23 152.33 280.68 152.33 C 280.99 166.14 277.07 179.70 271.42 192.19 C 267.43 199.94 262.35 207.08 256.72 213.71 C 247.89 222.94 236.93 230.48 224.56 234.00 C 217.69 236.80 210.18 235.29 202.98 235.68 C 196.08 236.20 189.46 233.73 183.21 231.09 C 174.72 226.98 166.84 221.53 160.26 214.74 C 153.28 207.30 147.73 198.61 143.24 189.49 C 138.46 177.68 134.97 165.15 135.32 152.33 Z" />
<path fill="#fdfcfa" opacity="1.00" d=" M 147.21 239.62 C 149.46 239.21 151.77 239.21 154.05 239.46 C 163.46 246.28 174.10 251.60 185.58 253.85 C 211.19 259.66 239.84 255.76 261.24 239.88 C 264.32 238.68 267.97 239.37 271.12 240.21 C 296.06 246.28 318.35 262.82 331.09 285.13 C 337.59 295.53 341.06 307.53 343.34 319.50 C 343.93 326.28 343.73 333.13 343.51 339.93 C 341.41 344.69 338.77 349.53 334.35 352.53 C 320.98 363.09 304.52 368.52 288.29 372.91 C 277.35 375.42 266.36 377.96 255.16 378.96 C 251.32 379.99 247.29 379.26 243.45 380.22 C 238.84 381.29 234.02 379.98 229.44 381.18 C 226.68 381.86 223.82 381.65 221.01 381.68 C 211.32 381.66 201.63 381.66 191.93 381.69 C 187.89 381.91 184.05 380.17 179.99 380.66 C 175.25 381.16 170.71 379.42 166.00 379.62 C 153.95 378.38 141.94 376.40 130.15 373.53 C 113.30 369.11 96.15 363.76 82.19 352.95 C 77.83 350.02 74.94 345.46 72.61 340.86 C 72.10 334.06 72.22 327.17 72.55 320.35 C 74.70 308.06 78.31 295.79 84.92 285.12 C 98.04 262.08 121.36 245.33 147.21 239.62 Z" />
</g>
</svg>
