<?xml version="1.0" encoding="UTF-8" ?>
<!DOCTYPE svg PUBLIC "-//W3C//DTD SVG 1.1//EN" "http://www.w3.org/Graphics/SVG/1.1/DTD/svg11.dtd">
<svg width="1000pt" height="1000pt" viewBox="0 0 1000 1000" version="1.1" xmlns="http://www.w3.org/2000/svg">
<g id="#000000ff">
<path fill="#000000" opacity="1.00" d=" M 249.00 194.00 C 278.67 194.00 308.33 194.00 338.00 194.00 C 338.00 291.33 338.00 388.67 338.00 486.00 C 308.33 486.00 278.67 486.00 249.00 486.00 C 249.00 388.67 249.00 291.33 249.00 194.00 Z" />
<path fill="#000000" opacity="1.00" d=" M 51.56 438.96 C 63.57 367.72 110.40 303.67 174.00 269.62 C 174.02 306.83 173.97 344.04 174.02 381.25 C 154.99 403.39 142.11 430.98 138.43 460.01 C 135.08 486.61 138.29 514.23 149.09 538.87 C 160.85 566.52 180.97 590.54 206.29 606.75 C 225.44 619.10 247.18 627.56 269.78 630.69 C 291.72 633.69 314.30 632.62 335.70 626.85 C 366.43 618.34 394.75 600.73 415.33 576.29 C 427.28 562.02 436.54 545.50 442.56 527.89 C 454.72 491.59 452.59 450.51 435.95 415.95 C 430.38 404.19 423.29 393.15 414.86 383.25 C 413.38 381.90 413.68 379.81 413.62 378.02 C 413.68 342.02 413.64 306.01 413.64 270.01 C 446.45 288.08 475.31 313.49 496.72 344.28 C 516.54 372.84 530.49 405.64 536.03 440.02 C 543.14 484.26 538.63 530.67 521.05 572.03 C 507.81 603.59 487.77 632.35 462.38 655.33 C 435.66 679.68 403.58 698.03 369.22 709.20 C 328.91 721.96 285.40 723.77 243.93 715.96 C 208.01 708.92 173.90 693.36 144.45 671.70 C 112.23 647.91 86.20 615.86 69.62 579.40 C 49.26 535.92 43.78 486.16 51.56 438.96 Z" />
<path fill="#000000" opacity="1.00" d=" M 585.01 335.24 C 614.42 335.25 643.83 335.24 673.24 335.25 C 673.27 352.67 673.23 370.10 673.26 387.53 C 695.16 360.19 727.68 341.50 762.38 336.55 C 780.50 333.89 798.98 334.24 817.10 336.61 C 837.76 339.43 858.09 345.95 875.77 357.15 C 899.27 371.89 917.40 394.56 927.61 420.27 C 935.10 438.97 938.87 458.99 940.12 479.05 C 940.98 493.34 940.71 507.67 940.75 521.99 C 940.76 587.99 940.75 653.99 940.76 719.99 C 910.67 720.00 880.58 720.02 850.49 719.98 C 850.52 651.00 850.48 582.02 850.50 513.04 C 850.58 495.53 849.39 477.62 842.88 461.17 C 836.92 445.66 826.40 431.47 811.84 423.10 C 795.68 413.73 776.44 411.15 758.03 412.00 C 736.80 412.88 716.00 421.84 701.06 437.00 C 681.95 455.22 674.62 482.34 674.01 508.03 C 673.99 578.68 674.01 649.34 674.00 720.00 C 644.33 720.00 614.67 720.00 585.00 720.00 C 585.00 591.75 584.99 463.49 585.01 335.24 Z" />
</g>
</svg>
