<?xml version="1.0" encoding="UTF-8" ?>
<!DOCTYPE svg PUBLIC "-//W3C//DTD SVG 1.1//EN" "http://www.w3.org/Graphics/SVG/1.1/DTD/svg11.dtd">
<svg width="492pt" height="527pt" viewBox="0 0 492 527" version="1.1" xmlns="http://www.w3.org/2000/svg">
<g id="#ffffffff">
<path fill="#ffffff" opacity="1.00" d=" M 201.00 0.00 L 290.00 0.00 C 290.00 97.33 290.01 194.65 289.99 291.98 C 260.33 292.02 230.67 292.01 201.01 291.98 C 200.99 194.65 201.00 97.33 201.00 0.00 Z" />
<path fill="#ffffff" opacity="1.00" d=" M 54.03 135.11 C 73.83 110.77 98.57 90.57 126.08 75.49 C 125.86 112.79 126.12 150.10 125.95 187.40 C 112.61 202.79 102.45 220.92 96.17 240.29 C 90.31 258.32 88.31 277.48 89.50 296.35 C 91.64 333.13 108.57 368.56 134.88 394.18 C 154.36 412.96 178.82 426.52 204.98 433.37 C 226.23 438.78 248.48 439.62 270.13 436.54 C 318.80 429.18 363.97 398.15 386.08 353.84 C 398.33 330.35 403.61 303.42 402.00 277.07 C 400.40 244.69 387.39 213.12 366.28 188.57 C 366.13 188.20 365.82 187.45 365.66 187.08 C 365.56 150.16 365.79 113.24 365.55 76.32 C 367.15 76.30 368.17 77.77 369.59 78.30 C 411.44 102.07 446.15 138.39 467.23 181.72 C 490.61 228.11 496.51 282.30 486.78 333.04 C 480.08 367.50 465.21 400.26 444.29 428.41 C 427.60 450.82 406.76 469.98 383.44 485.35 C 355.71 503.41 324.62 516.62 291.98 522.48 C 269.44 526.67 246.38 527.42 223.59 525.76 C 161.00 520.94 100.91 490.60 59.32 443.66 C 33.88 414.59 15.44 379.34 6.50 341.73 C 2.27 324.08 0.51 305.94 0.00 287.88 L 0.00 287.88 C 0.36 278.81 0.41 269.78 1.44 260.77 C 5.80 214.83 24.96 170.79 54.03 135.11 Z" />
</g>
</svg>
